<svg id="visual" viewBox="0 0 900 600" width="900" height="600" xmlns="http://www.w3.org/2000/svg" xmlns:xlink="http://www.w3.org/1999/xlink" version="1.1"><path d="M0 514L21.5 494.2C43 474.3 86 434.7 128.8 423.3C171.7 412 214.3 429 257.2 437C300 445 343 444 385.8 460.5C428.7 477 471.3 511 514.2 498C557 485 600 425 642.8 391.7C685.7 358.3 728.3 351.7 771.2 355.5C814 359.3 857 373.7 878.5 380.8L900 388L900 601L878.5 601C857 601 814 601 771.2 601C728.3 601 685.7 601 642.8 601C600 601 557 601 514.2 601C471.3 601 428.7 601 385.8 601C343 601 300 601 257.2 601C214.3 601 171.7 601 128.8 601C86 601 43 601 21.5 601L0 601Z" fill="#0083ff" stroke-linecap="round" stroke-linejoin="miter"></path></svg>